<svg id="Layer_1" data-name="Layer 1" xmlns="http://www.w3.org/2000/svg" viewBox="0 0 256.85 123.8"><defs><style>.cls-1,.cls-10,.cls-11,.cls-12,.cls-13,.cls-14,.cls-15,.cls-16,.cls-17,.cls-18,.cls-19,.cls-2,.cls-3,.cls-4,.cls-5,.cls-6,.cls-7,.cls-8,.cls-9{isolation:isolate;}.cls-2{font-size:50px;}.cls-10,.cls-11,.cls-12,.cls-13,.cls-14,.cls-15,.cls-16,.cls-18,.cls-19,.cls-2,.cls-3,.cls-4,.cls-5,.cls-6,.cls-7,.cls-8,.cls-9{fill:#d40850;}.cls-10,.cls-11,.cls-12,.cls-13,.cls-14,.cls-15,.cls-16,.cls-17,.cls-18,.cls-19,.cls-2,.cls-3,.cls-4,.cls-5,.cls-6,.cls-7,.cls-8,.cls-9{font-family:Vazir-Medium, Vazir;font-weight:500;}.cls-3{font-size:36px;}.cls-4{font-size:29px;}.cls-5{font-size:51px;}.cls-6{font-size:42px;}.cls-7{font-size:58.03px;}.cls-8{font-size:49px;}.cls-9{font-size:38px;}.cls-10{font-size:53px;}.cls-11{font-size:41.02px;}.cls-12{font-size:39px;}.cls-13{font-size:47.01px;}.cls-14{font-size:47.02px;}.cls-15{font-size:31px;}.cls-16{font-size:34px;}.cls-17{font-size:32.01px;fill:#d92162;}.cls-18{font-size:19px;}.cls-19{font-size:15px;}</style></defs><g class="cls-1"><text class="cls-2" transform="translate(105.74 46.8)">؟</text></g><g class="cls-1"><text class="cls-3" transform="translate(222.74 80.8) rotate(-101)">؟</text></g><g class="cls-1"><text class="cls-4" transform="translate(76.74 25.8)">؟</text></g><g class="cls-1"><text class="cls-5" transform="translate(133.74 59.8) rotate(68)">؟</text></g><g class="cls-1"><text class="cls-6" transform="translate(224.74 37.8) rotate(68)">؟</text></g><g class="cls-1"><text class="cls-7" transform="matrix(0.95, -0.33, 0.33, 0.95, 20.74, 123.8)">؟</text></g><g class="cls-1"><text class="cls-8" transform="translate(224.88 118.16) rotate(16)">؟</text></g><g class="cls-1"><text class="cls-9" transform="matrix(-0.69, -0.72, 0.72, -0.69, 97.74, 60.8)">؟</text></g><g class="cls-1"><text class="cls-10" transform="matrix(-0.69, -0.72, 0.72, -0.69, 221.74, 29.8)">؟</text></g><g class="cls-1"><text class="cls-11" transform="matrix(0.92, -0.39, 0.39, 0.92, 113.11, 115.83)">؟</text></g><g class="cls-1"><text class="cls-12" transform="matrix(-0.69, -0.72, 0.72, -0.69, 39.67, 12.53)">؟</text></g><g class="cls-1"><text class="cls-13" transform="translate(156.56 111.89) rotate(53.99)">؟</text></g><g class="cls-1"><text class="cls-14" transform="translate(31.34 44.66) rotate(66)">؟</text></g><g class="cls-1"><text class="cls-15" transform="translate(142.74 23.8) rotate(16)">؟</text></g><g class="cls-1"><text class="cls-16" transform="translate(252.09 16.52) rotate(-107)">؟</text></g><g class="cls-1"><text class="cls-17" transform="translate(63.74 106.8) rotate(61)">؟</text></g><g class="cls-1"><text class="cls-18" transform="matrix(-0.69, -0.72, 0.72, -0.69, 219.74, 106.8)">؟</text></g><g class="cls-1"><text class="cls-18" transform="matrix(-0.69, -0.72, 0.72, -0.69, 15.74, 58.8)">؟</text></g><g class="cls-1"><text class="cls-18" transform="matrix(-0.69, -0.72, 0.72, -0.69, 192.74, 8.8)">؟</text></g><g class="cls-1"><text class="cls-18" transform="matrix(-0.69, -0.72, 0.72, -0.69, 152.74, 103.8)">؟</text></g><g class="cls-1"><text class="cls-18" transform="matrix(-0.69, -0.72, 0.72, -0.69, 125.74, 63.8)">؟</text></g><g class="cls-1"><text class="cls-19" transform="matrix(-0.69, -0.72, 0.72, -0.69, 63.74, 6.8)">؟</text></g></svg>